<?xml version="1.0" standalone="no"?>
<svg
  width="600"
  height="600"
  viewBox="0 0 600 600"
  xmlns="http://www.w3.org/2000/svg"
>
  <g transform="translate(300,300)">
    <path d="M87,-134.4C112,-101.5,131.1,-75.2,156.9,-40.5C182.6,-5.8,214.9,37.3,202.5,62.8C190.1,88.4,133,96.4,91.8,127.5C50.5,158.6,25.3,212.8,-7,222.4C-39.2,231.9,-78.4,196.9,-104.8,161C-131.3,125.1,-145.1,88.3,-169.7,47C-194.3,5.7,-229.8,-40.3,-221.2,-73.4C-212.6,-106.6,-159.8,-126.9,-115.5,-153.5C-71.3,-180.2,-35.7,-213.1,-2.4,-209.8C31,-206.6,61.9,-167.2,87,-134.4Z" fill="#0693e3" />
  </g>
</svg>
  